<svg viewBox="0 0 300 300" xmlns="http://www.w3.org/2000/svg"><path d="m156.86 236.88a33 33 0 0 1 -21.35-58.1v-94.16a21.61 21.61 0 0 1 43.21 0v94.59a33 33 0 0 1 -21.86 57.67zm.25-163.88a11.61 11.61 0 0 0 -11.6 11.6v96.6a5 5 0 0 1 -2.08 4.06 23 23 0 1 0 36.4 18.64 22.8 22.8 0 0 0 -9.13-18.34 5 5 0 0 1 -2-4v-96.94a11.62 11.62 0 0 0 -11.59-11.62z" fill="#323338"/><path d="m160.36 188.44v-90.64h-7v90.64a15.6 15.6 0 1 0 7 0z" fill="#707071"/><g fill="#323338"><path d="m210.75 92.05h-18.75a5 5 0 0 1 0-10h18.77a5 5 0 0 1 0 10z"/><path d="m210.75 117.44h-18.75a5 5 0 1 1 0-10h18.77a5 5 0 0 1 0 10z"/><path d="m210.75 142.83h-18.75a5 5 0 0 1 0-10h18.77a5 5 0 0 1 0 10z"/><path d="m210.75 168.22h-18.75a5 5 0 0 1 0-10h18.77a5 5 0 0 1 0 10z"/></g></svg>