<svg viewBox="0 0 300 300" xmlns="http://www.w3.org/2000/svg"><path d="m150.47 126.57a1.9 1.9 0 0 0 -2.76 0c-5.58 5.82-26.19 28.75-26.19 50 0 11.54 11.1 20.89 27.57 20.89s27.57-9.35 27.57-20.89c0-21.25-20.61-44.18-26.19-50zm-1.38 60.9c-7.37 0-12.33-4.18-12.33-9.35 0-8.68 7.68-18 10.92-21.52a1.91 1.91 0 0 1 2.82 0c3.24 3.54 10.92 12.84 10.92 21.52 0 5.17-4.96 9.35-12.33 9.35z" fill="#707071"/><path d="m193.28 104.11c-2-.54-4-1-6-1.5v-24.61a9.37 9.37 0 0 0 -6.64-9 104.74 104.74 0 0 0 -61.26 0 9.35 9.35 0 0 0 -6.62 9v24.61q-3 .69-6 1.5a14.75 14.75 0 0 0 -10.82 14.22v85.48a14.78 14.78 0 0 0 10.77 14.19 27.05 27.05 0 0 0 2.89.58l-2.09 8.57a6.76 6.76 0 0 0 6.48 8.68h72a6.76 6.76 0 0 0 6.48-8.68l-2.09-8.57a28.92 28.92 0 0 0 2.88-.58 14.78 14.78 0 0 0 10.83-14.23v-85.44a14.76 14.76 0 0 0 -10.81-14.22zm-15-26.1v22.78c-1.15-.2-2.3-.38-3.45-.55v-23.53c1.06.28 2.12.58 3.17.91a.41.41 0 0 1 .26.38zm-9.45-2.7v24.13c-4.14-.47-8.29-.8-12.45-1l-1.28-10.89h3.49a2.5 2.5 0 0 0 0-5h-17.18a2.5 2.5 0 0 0 0 5h3.49l-1.26 10.93q-6.31.24-12.59 1v-24.14a96 96 0 0 1 37.76-.03zm-47.09 2.69a.39.39 0 0 1 .27-.38c1-.31 2-.6 3-.87v23.51c-1.1.16-2.21.34-3.31.53zm47.51 142.74v4a3.36 3.36 0 0 1 -3.36 3.36h-31.78a3.36 3.36 0 0 1 -3.36-3.36v-4a.62.62 0 0 1 .43-.59c1 0 2.1.07 3.16.09 5 .21 10.17.33 15.53.33s10.73-.12 15.82-.33l3.13-.09a.62.62 0 0 1 .43.59zm24.86-16.93a4.75 4.75 0 0 1 -3.46 4.58c-9.88 2.69-71.43 2.69-81.3 0a4.74 4.74 0 0 1 -3.46-4.58v-85.48a4.72 4.72 0 0 1 3.45-4.57 154.63 154.63 0 0 1 81.31 0 4.73 4.73 0 0 1 3.46 4.57z" fill="#323338"/></svg>