<svg viewBox="0 0 300 300" xmlns="http://www.w3.org/2000/svg"><g fill="#707071"><path d="m112.8 128.25h-9v-24.32a9.51 9.51 0 0 1 9.5-9.5h26.93v9h-26.93a.5.5 0 0 0 -.5.5z"/><path d="m230.33 226.39h-112a6 6 0 0 1 -6-6v-92.8a3 3 0 0 1 6 0v92.8h112v-112h-90.82a3 3 0 0 1 0-6h90.82a6 6 0 0 1 6 6v112a6 6 0 0 1 -6 6z"/><path d="m165.36 161.82a1.54 1.54 0 0 0 -1.63 1.7v.06c0 1.15.65 1.75 1.63 1.75a1.54 1.54 0 0 0 1.63-1.7v-.06c.01-1.15-.65-1.75-1.63-1.75z"/><path d="m172.89 161.82a1.54 1.54 0 0 0 -1.63 1.7v.06c0 1.15.65 1.75 1.63 1.75a1.54 1.54 0 0 0 1.63-1.7v-.06c-.04-1.15-.65-1.75-1.63-1.75z"/><path d="m174.33 147.47a15.81 15.81 0 1 0 15.81 15.8 15.8 15.8 0 0 0 -15.81-15.8zm-7.25 19a3.81 3.81 0 0 1 -1.74.37 3.92 3.92 0 0 1 -1.71-.35 3.52 3.52 0 0 1 0-5.85 3.78 3.78 0 0 1 1.74-.37 3.92 3.92 0 0 1 1.71.35 3.52 3.52 0 0 1 0 5.85zm7.53 0a3.81 3.81 0 0 1 -1.74.37 3.92 3.92 0 0 1 -1.71-.35 3.52 3.52 0 0 1 0-5.85 3.81 3.81 0 0 1 1.74-.37 3.92 3.92 0 0 1 1.71.35 3.52 3.52 0 0 1 0 5.85zm9.11-1.23v.9a.72.72 0 0 1 -.72.69h-.23a.72.72 0 0 1 -.72-.69v-2.47c0-1.23-.61-1.87-1.62-1.87s-1.63.62-1.63 1.81v2.39.13a.72.72 0 0 1 -.72.69h-.23a.72.72 0 0 1 -.72-.69v-2.43c0-2.29 1.29-3.41 3.32-3.41a3 3 0 0 1 3.27 3.35zm2.61.19v.71a.84.84 0 0 1 -1.66 0v-4.28a.72.72 0 0 1 .72-.69h.22a.72.72 0 0 1 .72.69zm-.83-4.83a.77.77 0 0 1 -.87-.73.88.88 0 0 1 1.74 0 .77.77 0 0 1 -.87.75z"/></g><path d="m136.47 82.22a29.89 29.89 0 0 0 -45.47 38.44l-3.77 3.77a2.67 2.67 0 0 0 -3 .53l-18.77 18.71a5.88 5.88 0 0 0 0 8.34l1.22 1.22a5.88 5.88 0 0 0 8.34 0l18.71-18.7a2.69 2.69 0 0 0 .53-3l3.74-3.79a29.9 29.9 0 0 0 38.44-45.52zm-7.07 35.21a19.9 19.9 0 1 1 0-28.14 19.75 19.75 0 0 1 0 28.14z" fill="#323338"/></svg>