<svg viewBox="0 0 300 300" xmlns="http://www.w3.org/2000/svg"><path d="m236.56 160.83v-.13c0-.56-1.1-13.78-4-22.91a3.46 3.46 0 0 0 -.89-1.45c-.78-.77-19.28-18.74-30-22.38h-.06l-.42-.11a189.27 189.27 0 0 0 -30.06-2.22h-.13a189.27 189.27 0 0 0 -30 2.19l-.42.11h-.06a31.37 31.37 0 0 0 -5.72 2.76 24.48 24.48 0 0 1 3.2 6.21c.5-.3 1-.58 1.46-.84l1.15 3.52-1.62.87a24.91 24.91 0 0 1 .3 7.94 52.08 52.08 0 0 1 6.42-3.49c2.75-.19 15.3-1 25.34-1 10 0 22.52.81 25.33 1 7.52 3.28 18.52 11.57 21.46 13.83a54.72 54.72 0 0 1 2.56 12.74h-1.26v-3.88a3.5 3.5 0 0 0 -.41-1.64l-2.63-4.95a3.45 3.45 0 0 0 -2.83-1.85c-.17 0-17-1.24-42.2-1.24-15.81 0-28.32.48-35.5.84a25.1 25.1 0 0 1 -3.36 4.19 24.78 24.78 0 0 1 -9.21 5.83v2.69h-1.27c.07-.71.16-1.51.26-2.35a25 25 0 0 1 -7.17 1.11c0 .44-.09.85-.12 1.24h-1.77c0-.4.1-.84.15-1.28a25.15 25.15 0 0 1 -6.88-1.41c-.42 3.33-.61 5.69-.62 5.92a.57.57 0 0 0 0 .13s0 .09 0 .14a1.8 1.8 0 0 0 0 .22v.35a3.18 3.18 0 0 0 .08.33 2.58 2.58 0 0 0 .1.33 2.92 2.92 0 0 0 .14.31c0 .1.1.2.16.3l.19.27a2.75 2.75 0 0 0 .22.26l.23.23a2.88 2.88 0 0 0 .27.22l.28.18a2.69 2.69 0 0 0 .29.16l.32.13.33.1c.11 0 .23 0 .35.06h.21 14l-8.5 42.2a3.52 3.52 0 0 0 .72 2.9 3.48 3.48 0 0 0 2.69 1.29l8.79.06a3.51 3.51 0 0 0 3.31-2.36l15.14-44.09h15.3l2.56 43.16a3.5 3.5 0 0 0 3.5 3.29h9.6a3.5 3.5 0 0 0 3.49-3.29l2.57-43.16h15.29l15.15 44.09a3.51 3.51 0 0 0 3.31 2.36l8.79-.06a3.49 3.49 0 0 0 3.4-4.19l-8.49-42.2h14 .21l.36-.06.32-.1.32-.13a2.11 2.11 0 0 0 .3-.16l.28-.18a2.75 2.75 0 0 0 .26-.22 1.75 1.75 0 0 0 .24-.23 2.75 2.75 0 0 0 .22-.26l.19-.27c.06-.1.11-.2.16-.3a2.92 2.92 0 0 0 .14-.31 2.58 2.58 0 0 0 .1-.33 3.2 3.2 0 0 0 .07-.33c0-.11 0-.23 0-.35s0-.15 0-.22.02-.08.02-.13zm-41.83-37.06c-4.81-.3-15.11-.88-23.66-.88-8.55 0-18.86.58-23.67.88l-1.2-3.63a201.51 201.51 0 0 1 49.73 0zm-70.73 80.13h-2l7.94-39.42h7.63zm6-46.43v-3l1.3-2.45c5.05-.31 19.72-1.09 39.78-1.09s34.72.78 39.77 1.09l1.31 2.45v3zm90.2 46.42h-2l-13.54-39.43h7.63zm7.26-46.42c-.35-4-1.24-10.81-3.45-16.23a3.6 3.6 0 0 0 -1.07-1.43c-.54-.42-12.13-9.52-21.42-14.23l1.16-3.52c7.65 4.18 18.7 14.07 23.49 18.67a108.93 108.93 0 0 1 3.06 16.74z" fill="#707071"/><path d="m112.33 156.13a80.76 80.76 0 0 1 4-16.39c2.75-2.07 12.43-9.26 22.12-15.56a24.39 24.39 0 0 0 -3-6.41c-9.41 6-18.78 13-22.5 15.74l-6.44-2.82c5.79-5.39 14.33-12.93 22.81-19.42a24.82 24.82 0 0 0 -10.53-4.46c-12.26 9.83-22.73 20-23.49 20.74a5.06 5.06 0 0 0 -1.3 2.07c-1 3.3-1.94 6.9-2.72 10.55a24.89 24.89 0 0 0 5.72 8.83 26.44 26.44 0 0 0 2.48 2.16c.77-4.79 1.75-9.9 3-14.56l6.55 2.87a92.81 92.81 0 0 0 -3.51 15.1 25.12 25.12 0 0 0 6.81 1.56z" fill="#707071"/><path d="m135.72 110.2a29.89 29.89 0 0 0 -45.51 38.44l-3.77 3.77a2.67 2.67 0 0 0 -3 .53l-18.73 18.71a5.9 5.9 0 0 0 0 8.34l1.23 1.23a5.9 5.9 0 0 0 8.34 0l18.72-18.71a2.68 2.68 0 0 0 .53-3l3.77-3.76a29.9 29.9 0 0 0 38.44-45.52zm-7.07 35.21a19.88 19.88 0 1 1 0-28.14 19.76 19.76 0 0 1 0 28.14z" fill="#323338"/></svg>