<svg viewBox="0 0 300 300" xmlns="http://www.w3.org/2000/svg"><path d="m228.69 95.89v-6.91l-8.14-8.14-8.14 8.14v6.91l5.14-5.14v102.97l-5.14-5.14v6.91l8.14 8.14 8.14-8.14v-6.91l-5.14 5.14v-102.97z" fill="#707071"/><path d="m193.2 213.62h-6.91l5.14 5.13h-102.98l5.14-5.13h-6.91l-8.13 8.13 8.13 8.14h6.91l-5.14-5.14h102.98l-5.14 5.14h6.91l8.14-8.14z" fill="#707071"/><g fill="#323338"><path d="m197.91 203.37h-115.91a4 4 0 0 1 -4-4v-115.94a4 4 0 0 1 4-4h115.91a4 4 0 0 1 4 4v115.94a4 4 0 0 1 -4 4zm-111.91-8h107.91v-107.94h-107.91z"/><path d="m131.18 140.78a1.55 1.55 0 0 0 -1.63 1.71c0 1.16.65 1.75 1.63 1.75a1.54 1.54 0 0 0 1.63-1.7v-.05c-.04-1.11-.65-1.71-1.63-1.71z"/><path d="m138.71 140.78a1.55 1.55 0 0 0 -1.63 1.71c0 1.16.65 1.75 1.63 1.75a1.54 1.54 0 0 0 1.63-1.7v-.05c-.04-1.11-.65-1.71-1.63-1.71z"/><path d="m140.15 126.43a15.81 15.81 0 1 0 15.85 15.81 15.8 15.8 0 0 0 -15.85-15.81zm-7.25 19a4 4 0 0 1 -1.74.36 3.78 3.78 0 0 1 -1.71-.35 3 3 0 0 1 -1.56-2.9 3.07 3.07 0 0 1 1.57-2.95 3.78 3.78 0 0 1 1.74-.37 3.71 3.71 0 0 1 1.7.36 3 3 0 0 1 1.57 2.9 3.09 3.09 0 0 1 -1.57 2.98zm7.53 0a4 4 0 0 1 -1.74.36 3.78 3.78 0 0 1 -1.71-.35 3 3 0 0 1 -1.56-2.9 3.07 3.07 0 0 1 1.57-2.95 4.26 4.26 0 0 1 3.45 0 3 3 0 0 1 1.56 2.9 3.09 3.09 0 0 1 -1.57 2.97zm9.1-1.24v.9a.72.72 0 0 1 -.71.7h-.23a.73.73 0 0 1 -.72-.7v-2.47c0-1.23-.61-1.87-1.63-1.87s-1.62.62-1.62 1.82v2.43.12a.73.73 0 0 1 -.72.7h-.23a.73.73 0 0 1 -.72-.7v-2.46c0-2.29 1.29-3.41 3.32-3.41s3.26 1.13 3.26 3.36zm2.62.19v.71a.84.84 0 0 1 -1.66 0v-4.27a.72.72 0 0 1 .72-.7h.22a.72.72 0 0 1 .72.7zm-.83-4.82a.78.78 0 0 1 -.87-.74.88.88 0 0 1 1.74 0 .78.78 0 0 1 -.87.77z"/></g></svg>