<svg viewBox="0 0 300 300" xmlns="http://www.w3.org/2000/svg"><path d="m151.69 72.76a2.87 2.87 0 0 0 -4.16 0c-8.42 8.78-39.53 43.39-39.53 75.46 0 17.42 16.74 31.52 41.59 31.52s41.6-14.1 41.6-31.52c.02-32.07-31.08-66.68-39.5-75.46zm-2.08 91.89c-11.12 0-18.6-6.31-18.6-14.1 0-13.1 11.59-27.14 16.47-32.47a2.89 2.89 0 0 1 4.26 0c4.88 5.33 16.48 19.37 16.48 32.47 0 7.79-7.49 14.1-18.61 14.1z" fill="#707071"/><path d="m206.9 207.84-11-3.1 6.27-1.76a5.81 5.81 0 0 0 4-7.17l-3.48-12.34a5.81 5.81 0 0 0 -7.18-4l-44.74 12.53-44.77-12.56a5.81 5.81 0 0 0 -7.18 4l-3.46 12.36a5.83 5.83 0 0 0 4 7.18l6.27 1.76-11 3.1a5.84 5.84 0 0 0 -4 7.18l3.48 12.34a5.74 5.74 0 0 0 2.76 3.49 5.68 5.68 0 0 0 2.83.75 6.15 6.15 0 0 0 1.59-.21l49.49-13.94 49.49 13.94a6.22 6.22 0 0 0 1.6.21 5.83 5.83 0 0 0 5.58-4.24l3.47-12.36a5.83 5.83 0 0 0 -4.02-7.16zm-10.59-21.37 2.84 10.11-16.15 4.54-19.38-5.46zm-95.81 37.88-2.84-10.11 20.86-5.88 19.37 5.46zm100.54 0-37.39-10.53-12.88-3.62-19.37-5.46-12.88-3.62-16.12-4.54 2.84-10.11 32.67 9.19 12.86 3.63 19.37 5.45 12.86 3.62 20.86 5.88z" fill="#323338"/></svg>