<svg viewBox="0 0 300 300" xmlns="http://www.w3.org/2000/svg"><path d="m150.73 96.72a2.48 2.48 0 0 0 -3.58 0c-7.23 7.55-34 37.3-34 64.87 0 15 14.39 27.09 35.75 27.09s35.75-12.12 35.75-27.09c.04-27.59-26.65-57.32-33.92-64.87zm-1.79 79c-9.55 0-16-5.43-16-12.12 0-11.26 10-23.33 14.16-27.91a2.47 2.47 0 0 1 3.66 0c4.2 4.58 14.16 16.65 14.16 27.91.01 6.68-6.42 12.11-15.98 12.11z" fill="#707071"/><g fill="#323338"><path d="m198.18 212.83-9.46-2.66 5.39-1.52a5 5 0 0 0 3.46-6.16l-3-10.61a5 5 0 0 0 -6.17-3.46l-38.47 10.83-38.47-10.83a5 5 0 0 0 -6.17 3.46l-3 10.6a5 5 0 0 0 3.46 6.17l5.39 1.52-9.46 2.66a5 5 0 0 0 -3.44 6.17l3 10.61a4.94 4.94 0 0 0 2.37 3 4.88 4.88 0 0 0 2.43.64 5.31 5.31 0 0 0 1.37-.18l42.54-12 42.54 12a5.31 5.31 0 0 0 1.37.18 4.88 4.88 0 0 0 2.43-.64 4.94 4.94 0 0 0 2.37-3l3-10.61a5 5 0 0 0 -3.48-6.17zm-9.1-18.37 2.44 8.69-13.86 3.9-16.66-4.69zm-82.35 32.54-2.44-8.69 17.93-5.05 16.65 4.74zm86.42 0-32.15-9-11.07-3.11-16.65-4.69-11.07-3.12-13.86-3.9 2.44-8.69 28.08 7.9 11.06 3.12 16.65 4.69 11.07 3.11 17.93 5.05z"/><path d="m208.83 63.1a27.61 27.61 0 1 0 27.61 27.61 27.61 27.61 0 0 0 -27.61-27.61zm0 44.93a17.31 17.31 0 0 1 -2.5-34.44v9.82a7.74 7.74 0 1 0 5 0v-9.82a17.31 17.31 0 0 1 -2.5 34.44z"/></g></svg>