<svg viewBox="0 0 300 300" xmlns="http://www.w3.org/2000/svg"><path d="m226.3 189.83-37.1-96.43a4.68 4.68 0 0 0 -3.28-2.94 4.5 4.5 0 0 0 -5.18 2.78l-17.82 46.3a1.44 1.44 0 0 0 0 1.06 49.69 49.69 0 0 1 3.55 13.12.31.31 0 0 0 .59.08l17.86-46.41 30.6 79.55h-27v-7.65l8.35-8.35a3.63 3.63 0 0 0 .27-4.95 3.5 3.5 0 0 0 -5.08-.14l-8.06 8.06-8-7.95a3.54 3.54 0 0 0 -4.44-.54 3.5 3.5 0 0 0 -.57 5.42l8.48 8.48v7.62h-19.54a1.61 1.61 0 0 0 -1.33.73 50 50 0 0 1 -6.09 7.53.43.43 0 0 0 .31.74h26.72v36.73a2.13 2.13 0 0 0 2.14 2.13h4.73a2.13 2.13 0 0 0 2.13-2.13v-36.73h33.4a4.7 4.7 0 0 0 2.88-.91 4.5 4.5 0 0 0 1.48-5.2z" fill="#323338"/><path d="m160.9 160.2a44.22 44.22 0 1 0 -48.72 44v28.47a2.13 2.13 0 0 0 2.14 2.13h4.68a2.13 2.13 0 0 0 2.14-2.13v-28.47a44.29 44.29 0 0 0 39.76-44zm-39.72 34.93v-8.88l8.66-8.65a3.5 3.5 0 1 0 -5-4.95l-8.06 8.06-8-8a3.5 3.5 0 0 0 -5 4.95l8.32 8.32v9.17a35.22 35.22 0 1 1 9 0z" fill="#323338"/><circle cx="85.06" cy="86.27" fill="#707071" r="21.28"/></svg>