<svg height="374" viewBox="0 0 374 374" width="374" xmlns="http://www.w3.org/2000/svg"><path d="m207.661613 187.000822 162.059131-162.060257c5.705675-5.7056886 5.705675-14.95634038 0-20.66129853-5.705675-5.70495816-14.956304-5.70568863-20.661248 0l-162.059861 162.06025653-162.0591309-162.06025653c-5.7056747-5.70568863-14.95630386-5.70568863-20.66124808 0-5.70494423 5.70568862-5.70567469 14.95634033 0 20.66129853l162.05913098 162.059526-162.05913098 162.060257c-5.70567469 5.705689-5.70567469 14.95634 0 20.661299 2.85247211 2.852479 6.59173068 4.278353 10.33098928 4.278353s7.4777867-1.425874 10.3309892-4.278353l162.0584005-162.059527 162.05913 162.059527c2.852473 2.852479 6.591731 4.278353 10.33099 4.278353 3.739258 0 7.477786-1.425874 10.330989-4.278353 5.705675-5.705689 5.705675-14.956341 0-20.661299z" fill="#293035"/></svg>