<svg viewBox="0 0 300 300" xmlns="http://www.w3.org/2000/svg"><g fill="#707071"><circle cx="135.09" cy="112.83" r="7.72"/><circle cx="166.02" cy="104.02" r="7.72"/><circle cx="194.92" cy="129.21" r="7.72"/><circle cx="111.84" cy="134.58" r="7.72"/><circle cx="105.62" cy="170.4" r="7.72"/><path d="m133.85 179.84a7.72 7.72 0 1 0 7.72 7.72 7.72 7.72 0 0 0 -7.72-7.72z"/><path d="m171.28 186.06a7.72 7.72 0 1 0 7.72 7.71 7.73 7.73 0 0 0 -7.72-7.71z"/><path d="m186.38 157.39a7.72 7.72 0 1 0 7.72 7.71 7.73 7.73 0 0 0 -7.72-7.71z"/><circle cx="135.83" cy="96.31" r="3.92"/><circle cx="136.95" cy="205.63" r="3.92"/><circle cx="194.25" cy="178.44" r="3.73"/></g><path d="m150 63.1a86.9 86.9 0 1 0 86.9 86.9 86.89 86.89 0 0 0 -86.9-86.9zm0 163.8a76.9 76.9 0 1 1 76.9-76.9 77 77 0 0 1 -76.9 76.9z" fill="#323338"/><path d="m150 80.33a69.65 69.65 0 1 0 69.62 69.67 69.72 69.72 0 0 0 -69.62-69.67zm47 113.19-41.08-41.08h58.08a63.83 63.83 0 0 1 -17 41.08zm-111-41.08h58.15l-41.15 41.09a63.81 63.81 0 0 1 -17.07-41.09zm17-46 41.12 41.13h-58.2a63.9 63.9 0 0 1 17.08-41.14zm49.46-20.5a63.81 63.81 0 0 1 41.07 17.06l-41.09 41.09zm-4.88 58.17-41.15-41.11a63.9 63.9 0 0 1 41.13-17.06zm0 11.77v58.12a63.87 63.87 0 0 1 -41.12-17zm4.88 0 41.06 41.12a63.83 63.83 0 0 1 -41.08 17zm3.43-8.33 41.11-41.11a63.87 63.87 0 0 1 17 41.12z" fill="#323338"/><circle cx="162.29" cy="178.44" fill="#707071" r="3.73"/><circle cx="203.06" cy="161.37" fill="#707071" r="3.73"/><circle cx="178.33" cy="139.96" fill="#707071" r="3.73"/><circle cx="161.33" cy="122.77" fill="#707071" r="3.73"/><circle cx="96.21" cy="132.09" fill="#707071" r="3.73"/><circle cx="121.31" cy="160.04" fill="#707071" r="3.73"/></svg>