<svg viewBox="0 0 300 300" xmlns="http://www.w3.org/2000/svg"><path d="m165.94 124.71a25.06 25.06 0 1 1 -15.47-44.78v9.34a15.72 15.72 0 1 0 8.78 28.73z" fill="#707071"/><g fill="#323338"><path d="m150.47 79.93v9.34a15.72 15.72 0 0 1 13 24.51l-6.44-6.44a6.75 6.75 0 0 0 .42-2.35 7 7 0 1 0 -4.66 6.6l6.43 6.43 6.69 6.69q.54-.42 1.05-.87s0 0 0 0c.26-.23.52-.46.77-.71.42-.4.83-.81 1.22-1.24s.6-.68.88-1 .71-.89 1-1.36c.17-.23.33-.46.48-.7s.21-.32.31-.49a6.16 6.16 0 0 0 .33-.55c.13-.21.25-.42.37-.63a23.36 23.36 0 0 0 1.67-3.71c.11-.3.21-.61.31-.92 0-.09 0-.18.08-.27.09-.3.18-.61.25-.91a22.59 22.59 0 0 0 .53-2.6c.05-.35.1-.69.13-1 0-.14 0-.28 0-.42 0-.3 0-.59.07-.89v-.16c0-.39 0-.78 0-1.18a25.06 25.06 0 0 0 -24.89-25.17z"/><path d="m211.23 188.67h-48.23v-44.67a40.95 40.95 0 1 0 -25.07 0v44.7h-48.23a3.56 3.56 0 0 0 -3.56 3.56v12.25a3.56 3.56 0 0 0 3.56 3.49h1v22.25a4.49 4.49 0 0 0 4.5 4.5h110.5a4.49 4.49 0 0 0 4.5-4.5v-22.25h1a3.56 3.56 0 0 0 3.56-3.56v-12.21a3.56 3.56 0 0 0 -3.53-3.56zm-92.71-83.67a32 32 0 1 1 32 32 32 32 0 0 1 -32-32zm28.41 40.79c1.17.1 2.35.16 3.54.16s2.37-.06 3.53-.16v42.89h-7.07zm54.27 80h-101.46v-17.79h101.46z"/></g></svg>