<svg viewBox="0 0 300 300" xmlns="http://www.w3.org/2000/svg"><path d="m151.22 140.41a1.77 1.77 0 0 0 -2.56 0c-5.19 5.41-24.36 26.74-24.36 46.52 0 10.73 10.32 19.43 25.64 19.43s25.64-8.7 25.64-19.43c0-19.78-19.17-41.11-24.36-46.52zm-1.28 56.64c-6.85 0-11.47-3.89-11.47-8.69 0-8.07 7.15-16.73 10.16-20a1.77 1.77 0 0 1 2.62 0c3 3.29 10.16 11.95 10.16 20 0 4.8-4.62 8.69-11.47 8.69z" fill="#707071"/><path d="m233.73 151.83h-32.57v-8.29a16.47 16.47 0 0 0 -6.5-13 77.06 77.06 0 0 0 -22.78-11.78v-5.36a4.76 4.76 0 0 0 -4.76-4.76h-5.68v-15.3h23.83c5.09 0 5.09-4.06 5.09-5.5 0-4.55-3.26-12-13-12s-9.36 6.93-13.84 6.93-4.69-6.93-12-6.93h-.23c-7.33 0-7.54 6.93-12 6.93s-4.07-6.93-13.84-6.93-13 7.46-13 12c0 1.44 0 5.5 5.09 5.5h23.83v15.26h-5.93a4.76 4.76 0 0 0 -4.76 4.76v4.64a76.83 76.83 0 0 0 -25.34 12.53 16.47 16.47 0 0 0 -6.5 13v8.29h-32.68a3.12 3.12 0 0 0 -3.16 3.18v35.6a3.11 3.11 0 0 0 3.12 3.11h32.6v8.29a16.36 16.36 0 0 0 6.28 12.91 73.41 73.41 0 0 0 89.65.13 16.45 16.45 0 0 0 6.5-13v-8.29h32.57a3.11 3.11 0 0 0 3.11-3.11v-35.64a3.12 3.12 0 0 0 -3.1-3.17zm-42.57 50.17a6.33 6.33 0 0 1 -2.54 5.07 63.4 63.4 0 0 1 -77.5-.08 6.29 6.29 0 0 1 -2.4-5v-58.45a6.34 6.34 0 0 1 2.54-5.07 63.35 63.35 0 0 1 77.36 0 6.34 6.34 0 0 1 2.54 5.07z" fill="#323338"/></svg>