<svg viewBox="0 0 300 300" xmlns="http://www.w3.org/2000/svg"><path d="m150 236a86 86 0 1 1 86-86 86.08 86.08 0 0 1 -86 86zm0-162a76 76 0 1 0 76 76 76.06 76.06 0 0 0 -76-76z" fill="#323338"/><g fill="#707071"><path d="m149.94 211.88c1.07 0 2.13 0 3.18-.08q-1.58.09-3.18.09z"/><path d="m154.7 211.7a62.31 62.31 0 0 0 9.22-1.4 59.41 59.41 0 0 1 -9.22 1.4z"/><path d="m163.92 210.3a64 64 0 0 0 7.3-2.17 57.42 57.42 0 0 1 -7.3 2.17z"/><path d="m171.22 208.13a61.4 61.4 0 0 0 6.89-3 58 58 0 0 1 -6.89 3z"/></g><path d="m111.18 150a38.82 38.82 0 0 0 38.76 38.81h.06a38.71 38.71 0 0 0 21.66-6.6 38.81 38.81 0 0 0 -21.7-71 38.82 38.82 0 0 0 -38.78 38.79z" fill="none"/><path d="m149.94 88.11a61.89 61.89 0 1 0 0 123.77c1.07 0 2.13 0 3.18-.08l1.58-.1a62.31 62.31 0 0 0 9.22-1.4 64 64 0 0 0 7.3-2.17 61.4 61.4 0 0 0 6.89-3c.34-.17.68-.34 1-.52q2.55-1.36 4.95-3l1-.71c.69-.47 1.37-1 2-1.47l1-.77-16.48-16.47a38.71 38.71 0 0 1 -21.66 6.6h-.06a38.82 38.82 0 0 1 0-77.63v-23.04" fill="#707071"/><path d="m149.89 88.11v23.06a38.8 38.8 0 0 1 32.17 60.51l-15.89-15.89a17.29 17.29 0 1 0 -16.28 11.5 17.17 17.17 0 0 0 5.8-1l15.9 15.9 16.47 16.47c.9-.7 1.78-1.43 2.63-2.18q1.26-1.11 2.46-2.28l.09-.09c.78-.76 1.53-1.55 2.27-2.35l.13-.14c.73-.8 1.43-1.62 2.12-2.46l.13-.15q1-1.26 2-2.58l.11-.14c.64-.89 1.26-1.8 1.86-2.72l.06-.1c.61-1 1.2-1.91 1.75-2.89a61.9 61.9 0 0 0 -53.82-92.43z" fill="#323338"/></svg>