<svg viewBox="0 0 300 300" xmlns="http://www.w3.org/2000/svg"><path d="m217.83 157.48a1.46 1.46 0 0 0 .17-.24 2.2 2.2 0 0 0 .15-.26l.12-.28a2.46 2.46 0 0 0 .09-.29c0-.1 0-.19.07-.29s0-.21 0-.32 0-.13 0-.19 0-.08 0-.13v-.12c-.05-.66-1.3-16.34-4.72-27.13 0 0 0-.08-.05-.12s0-.13-.07-.19a2 2 0 0 0 -.13-.25l-.12-.2a2.76 2.76 0 0 0 -.34-.47v-.07c-1.25-1.22-22.92-22.22-35.42-26.46h-.09l-.36-.1a225.54 225.54 0 0 0 -35.74-2.64h-.09a225.48 225.48 0 0 0 -35.73 2.64l-.36.1h-.21c-12.5 4.25-34.18 25.26-35.41 26.46l-.06.07a2.71 2.71 0 0 0 -.36.46 1.32 1.32 0 0 0 -.12.2c0 .08-.1.16-.14.25l-.06.19s0 .08 0 .12c-3.42 10.79-4.67 26.47-4.72 27.13a.48.48 0 0 0 0 .12s0 .08 0 .13a1.37 1.37 0 0 0 0 .19 1.73 1.73 0 0 0 0 .32c0 .1 0 .19.07.29a2.93 2.93 0 0 0 .21.57 2.15 2.15 0 0 0 .14.26l.17.25.19.23a2.09 2.09 0 0 0 .22.2 2.11 2.11 0 0 0 .23.19l.25.17.26.14.29.11a1.61 1.61 0 0 0 .29.09 3 3 0 0 0 .32.06h.18 17.87l-10.4 51.7a3.11 3.11 0 0 0 3 3.74l10.5.06a3.1 3.1 0 0 0 2.94-2.1l18.35-53.4h20l3.12 52.57a3.11 3.11 0 0 0 3.11 2.93h11.56a3.11 3.11 0 0 0 3.11-2.93l3.12-52.57h20l18.34 53.4a3.12 3.12 0 0 0 2.95 2.1l10.5-.06a3.12 3.12 0 0 0 3-3.74l-10.41-51.7h17.99a1.08 1.08 0 0 0 .19 0 3 3 0 0 0 .32-.06 1.61 1.61 0 0 0 .29-.09l.28-.11a1.43 1.43 0 0 0 .27-.15l.25-.16a2.11 2.11 0 0 0 .23-.19 1.34 1.34 0 0 0 .21-.2 2.23 2.23 0 0 0 .19-.23zm-126.71-5v-4.92l2-3.69c5.43-.35 23.36-1.34 48.19-1.34s42.76 1 48.19 1.34l1.95 3.69v4.92zm106.17-7.16-3.14-5.91a3.12 3.12 0 0 0 -2.53-1.65c-.2 0-20.27-1.47-50.34-1.47-30.07 0-50.15 1.46-50.35 1.47a3.1 3.1 0 0 0 -2.52 1.65l-3.14 5.91a3.09 3.09 0 0 0 -.36 1.46v5.7h-3.76c.33-4.07 1.19-11.25 3.33-16.92 3.4-2.55 18.49-13.73 26.25-16.94 2.9-.21 18.28-1.22 30.54-1.23s27.53 1 30.51 1.22c9.32 4 23.12 14.49 26.27 16.93 2.14 5.66 3 12.86 3.34 16.94h-3.74v-5.7a3.22 3.22 0 0 0 -.36-1.45zm-123.5-11.86 4.21 1.84a79.57 79.57 0 0 0 -3.08 17.19h-4.31a145.22 145.22 0 0 1 3.18-19.03zm30.34-25.87 2.06 6.27c-8.19 4.07-20.49 13.01-24.71 16.14l-4.17-1.82c6.85-6.32 18.69-16.48 26.82-20.59zm37.14-3.67a236.49 236.49 0 0 1 31.12 2l-2.08 6.35c-5.31-.35-18.32-1.11-29-1.11-10.71 0-23.72.76-29 1.11l-2.08-6.35a236.21 236.21 0 0 1 31.04-2zm63.94 24.28-4.12 1.8c-4.06-3.11-15.55-11.66-24.74-16.14l2.06-6.28c8.66 4.33 20.93 15.19 26.8 20.62zm-.65 7.1 4.19-1.84a146.93 146.93 0 0 1 3.18 19h-4.28a79.06 79.06 0 0 0 -3.09-17.16zm-118.81 72.7h-4.48l9.91-49.23h11.49zm111 0-16.92-49.25h11.48l9.95 49.25z" fill="#707071"/><path d="m238.41 126.22v-6.47l-7.63-7.63-7.63 7.63v6.47l4.63-4.63v21.55l-4.63-4.63v6.48l7.63 7.63 7.63-7.63v-6.48l-4.63 4.63v-21.55z" fill="#323338"/></svg>