<svg viewBox="0 0 300 300" xmlns="http://www.w3.org/2000/svg"><path d="m212.23 148.47a2.8 2.8 0 0 0 .25-.35c.08-.13.14-.25.21-.38l.18-.4c0-.14.09-.28.13-.42a3 3 0 0 0 .09-.43 3.41 3.41 0 0 0 0-.46 2.48 2.48 0 0 0 0-.27c0-.06 0-.12 0-.18a1 1 0 0 0 0-.17c-.05-.64-1.25-15.77-4.57-26.24a4.49 4.49 0 0 0 -1.14-1.86c-2.24-2.19-22.27-21.51-34.4-25.63a4 4 0 0 0 -.66-.17 213.76 213.76 0 0 0 -34.32-2.51h-.09a213.76 213.76 0 0 0 -34.36 2.54 4 4 0 0 0 -.66.17c-12.13 4.12-32.15 23.44-34.4 25.63a4.49 4.49 0 0 0 -1.14 1.86c-3.32 10.47-4.52 25.6-4.57 26.24a1 1 0 0 0 0 .17v.18s0 .18 0 .27a3.41 3.41 0 0 0 0 .46c0 .15.06.29.09.43a3.45 3.45 0 0 0 .14.42c0 .14.11.27.17.4s.13.25.21.38a2.8 2.8 0 0 0 .25.35 2.16 2.16 0 0 0 .27.33c.1.11.2.2.31.3l.33.28.36.23c.13.07.25.15.39.21l.41.16a3.24 3.24 0 0 0 .41.13 3.69 3.69 0 0 0 .46.08l.27.05h.35 15l-9.56 47.5a4.5 4.5 0 0 0 4.38 5.38l10 .07a4.51 4.51 0 0 0 4.26-3l17.14-49.91h16.59l2.99 48.69a4.5 4.5 0 0 0 4.49 4.23h10.95a4.5 4.5 0 0 0 4.49-4.23l2.9-48.72h16.59l17.15 49.91a4.49 4.49 0 0 0 4.25 3l10-.07a4.46 4.46 0 0 0 3.47-1.66 4.53 4.53 0 0 0 .92-3.72l-9.57-47.5h15 .35l.27-.05a3.69 3.69 0 0 0 .46-.08l.41-.13.42-.16.38-.21.36-.23a3 3 0 0 0 .33-.28c.11-.1.21-.19.31-.3a2.16 2.16 0 0 0 .3-.33zm-11.67-7.21c-.72-3.09-1.82-7.63-3.08-12.38l3.78-2.34a139.94 139.94 0 0 1 2.43 14.72zm-107.56 0v-3.08l1.59-3.12c5.36-.35 21.4-1.25 43.44-1.25s38.07.9 43.44 1.25l1.58 3.12v3.08zm97.05 0v-3.91a3.47 3.47 0 0 0 -.38-1.58l-2.86-5.65a3.47 3.47 0 0 0 -2.85-1.9c-.18 0-18.5-1.41-45.93-1.41-27.43 0-45.75 1.39-45.93 1.41a3.46 3.46 0 0 0 -2.85 1.91l-2.86 5.64a3.47 3.47 0 0 0 -.38 1.58v3.91h-4.3c.78-3.33 1.91-7.91 3.2-12.66 2.83-2.68 15.36-14.25 24.12-18.1 2.85-.2 17.39-1.16 29-1.17s26.17 1 29 1.17c8.19 3.59 19.67 13.94 23.45 17.46a3.46 3.46 0 0 0 .38.89 3.17 3.17 0 0 0 .54.66c1.19 4.43 2.22 8.64 2.95 11.75zm-117.74 0a135.06 135.06 0 0 1 2.52-15.26l3.92 2.4c-1.31 4.92-2.46 9.67-3.2 12.87zm30.69-39.84 1.51 4.61c-8.53 4.45-18.69 13.52-22.67 17.21l-4-2.42c6.44-5.93 17.55-15.51 25.16-19.4zm35-3.42a225.18 225.18 0 0 1 29.18 1.86l-1.5 4.56c-5-.33-17.34-1-27.52-1.06h-.16c-10.28 0-22.72.75-27.67 1.07l-1.5-4.57a224.67 224.67 0 0 1 29.17-1.86zm59.73 22.53-3.84 2.38c-4.24-3.91-14.11-12.63-22.41-16.92l1.49-4.54c7.45 3.78 18.3 13.1 24.74 19.05zm-113.81 73.66h-1.32l8.84-43.92h7.56zm109.44 0h-1.36l-15.1-43.93h7.57z" fill="#323338"/><g fill="#707071"><path d="m205.32 211.72h-6.91l5.14 5.14h-130.82l5.14-5.14h-6.91l-8.14 8.14 8.14 8.14h6.91l-5.14-5.14h130.82l-5.14 5.14h6.91l8.14-8.14z"/><path d="m236.59 104.25v-6.91l-8.13-8.14-8.14 8.14v6.91l5.14-5.14v94.24l-5.14-5.14v6.91l8.14 8.13 8.13-8.13v-6.91l-5.13 5.14v-94.24z"/></g></svg>